<svg fill="none" height="290" viewBox="0 0 265 290" width="265" xmlns="http://www.w3.org/2000/svg"><path clip-rule="evenodd" d="m65.1594 31c0-17.1208 13.8792-31 31-31 17.1206 0 30.9996 13.8792 30.9996 31v84.689c3.269-.454 6.607-.689 10-.689h55c39.765 0 72 32.236 72 72v31c0 39.764-32.235 72-72 72h-55c-19.907 0-37.9276-8.079-50.961-21.138-.2119-.2-.4216-.404-.6292-.612l-76.48911-76.489c-12.10625-12.106-12.10626-31.734 0-43.841 12.10621-12.106 31.73441-12.106 43.84061 0l12.2391 12.239z" fill="#84bf42" fill-rule="evenodd"/></svg>