<svg clip-rule="evenodd" fill-rule="evenodd" stroke-linejoin="round" stroke-miterlimit="2" viewBox="0 0 200 200" xmlns="http://www.w3.org/2000/svg"><g transform="matrix(1.13412 0 0 1.13412 -23.3677 -1.67869)"><path d="m168.091 34.47h-26.149l-34.968 87.834-25.98-28.069-20.967 12.304 33.851 38.028h30.382z" fill="#fff"/><path d="m105.765 115.806 32.901-82.641c.534-1.342 1.832-2.222 3.276-2.222h26.149c1.17 0 2.263.579 2.919 1.547.657.968.791 2.198.358 3.284l-43.832 110.098c-.534 1.342-1.832 2.222-3.276 2.222h-30.382c-1.006 0-1.965-.43-2.634-1.182l-33.851-38.028c-.703-.789-1.014-1.851-.85-2.894.165-1.044.788-1.958 1.699-2.493l20.967-12.303c1.428-.839 3.248-.57 4.373.646zm62.326-81.336h-26.149l-34.968 87.834-25.98-28.069-20.967 12.304 33.851 38.028h30.382z"/></g></svg>