<svg clip-rule="evenodd" fill-rule="evenodd" stroke-linejoin="round" stroke-miterlimit="2" viewBox="0 0 200 200" xmlns="http://www.w3.org/2000/svg"><g transform="matrix(1.23681 0 0 1.23681 -4.70281 -29.1796)"><path d="m88.864 86.616 24.032-32.773h26.149l-36.018 52.088 36.018 49.118h-30.381l-19.8-28.634-19.8 28.634h-30.381l36.017-49.118-36.017-52.088h26.149z" fill="#fff"/><path d="m70.73 105.876-34.707-50.193c-.684-.989-.763-2.276-.204-3.341.558-1.065 1.661-1.733 2.864-1.733h26.149c1.03 0 1.999.491 2.608 1.322l21.424 29.216 21.424-29.216c.609-.831 1.578-1.322 2.608-1.322h26.149c1.202 0 2.306.668 2.864 1.733.559 1.065.48 2.352-.204 3.341l-34.707 50.193 34.655 47.26c.721.983.828 2.288.277 3.375s-1.666 1.772-2.885 1.772h-30.381c-1.062 0-2.057-.521-2.661-1.395l-17.139-24.787-17.14 24.787c-.604.874-1.598 1.395-2.66 1.395h-30.381c-1.219 0-2.334-.685-2.885-1.772s-.444-2.392.277-3.375zm18.134-19.26 24.032-32.773h26.149l-36.018 52.088 36.018 49.118h-30.381l-19.8-28.634-19.8 28.634h-30.381l36.017-49.118-36.017-52.088h26.149z"/></g></svg>