<svg clip-rule="evenodd" fill-rule="evenodd" stroke-linejoin="round" stroke-miterlimit="2" viewBox="0 0 73 88" xmlns="http://www.w3.org/2000/svg"><path d="m0 15.64s.673-2.758 2.586-6.573c.156-.312 5.269 4.302 5.269 4.302s1.34-1.892 1.218-1.953c-.669-1.221-5.377-4.549-5.176-4.884 1.185-1.97 2.958-4.454 4.799-6.532-1.96.96-5.103 3.479-6.504 5.067-.323.365-4.622-3.652-4.932-3.297.122 0-1.218 2.32-1.218 2.32s4.323 2.747 4.567 3.174c-1.353 2.286-2.741 5.476-2.74 5.47.002-.013 2.131 2.906 2.131 2.906" fill="#ed1c24" fill-rule="nonzero" transform="matrix(5.55556 0 0 5.55556 22.06715912 .46255068)"/></svg>