<svg width="194" height="194" viewBox="0 0 194 194" fill="none" xmlns="http://www.w3.org/2000/svg">
<circle cx="97" cy="97" r="97" fill="#E2F1F6"/>
<path d="M87.5196 85.6892C83.87 87.7782 80.7645 90.6682 78.1697 94.2034C75.2237 98.1768 73.4854 103.177 72.5833 108.759L72.5743 108.814L72.5664 108.869C72.4129 109.935 72.3286 111.002 72.3286 112.063C72.3286 114.544 72.8357 116.977 73.709 119.321C74.4973 121.437 75.7891 123.17 77.328 124.591C77.1491 124.74 76.9726 124.894 76.7985 125.052C73.2318 128.296 71.2429 132.524 71.2429 137.4C71.2429 140.394 71.9641 143.27 73.4661 145.889C75.1233 148.819 77.6172 150.938 80.5357 152.361C83.7008 153.925 87.3277 154.5 91.0571 154.5C94.7832 154.5 98.4248 153.938 101.578 152.362C104.51 150.95 107.036 148.839 108.705 145.889C110.207 143.27 110.929 140.394 110.929 137.4C110.929 132.524 108.94 128.296 105.373 125.052C105.371 125.051 105.369 125.049 105.368 125.048C107.079 122.834 107.927 120.189 108.291 117.639C108.516 116.105 109.096 115.243 110.009 114.567L110.016 114.562L110.023 114.558C112.022 113.07 114.458 111.654 117.381 110.339L117.43 110.317L117.479 110.294C119.803 109.202 122.102 108.011 124.377 106.722L124.393 106.713L124.408 106.703C127.062 105.18 129.476 103.345 131.635 101.204C134.071 98.7873 135.952 95.9168 137.317 92.688C138.867 89.1172 139.5 85.0686 139.5 80.7745C139.5 75.4936 138.417 70.5385 136.093 66.0641C133.893 61.7575 130.826 58.107 126.955 55.1538C123.21 52.2677 118.948 50.1173 114.24 48.6625C109.578 47.2099 104.697 46.5 99.6286 46.5C93.5596 46.5 87.6849 47.8648 82.0624 50.5189C76.4455 53.1505 71.6622 56.8457 67.7927 61.5871L67.7561 61.632L67.7203 61.6775C65.6831 64.2666 64.5 67.3404 64.5 70.7416C64.5 71.5018 64.6476 72.742 64.7766 73.7974L64.778 73.8095L64.7796 73.8216C65.2535 77.5827 67.8713 80.3002 69.9021 82.0081L70.0407 82.1247L70.1857 82.2334C72.7651 84.1679 75.7885 85.2906 79.1143 85.2906C79.7892 85.2906 80.8961 85.1954 82.0019 85.0926L82.089 85.0845L82.1759 85.074C85.9333 84.6223 88.6796 82.0872 90.4554 80.0096L90.4628 80.001C92.9625 77.066 95.8972 75.7112 99.7429 75.7112C101.126 75.7112 102.302 75.8543 103.3 76.0958L103.373 76.1133L103.44 76.128C103.457 76.2784 103.471 76.483 103.471 76.75C103.471 77.2209 103.413 77.4759 103.382 77.5758C103.377 77.5931 103.373 77.606 103.369 77.615C103.04 78.0185 102.478 78.5179 101.494 79.0285L101.466 79.0427L101.439 79.0571C100.052 79.7932 98.4524 80.524 96.6263 81.2419C93.586 82.4316 90.5503 83.9201 87.5196 85.6892Z" fill="#008AAD" stroke="white" stroke-width="13"/>
</svg>
