<svg width="568" height="231" viewBox="0 0 568 231" fill="none" xmlns="http://www.w3.org/2000/svg">
<path d="M82 100C90 90 273.2 34 438 34" stroke="#667788" stroke-width="26" stroke-dasharray="60 30"/>
<circle cx="60" cy="96" r="46.5" fill="white" stroke="#84BF42" stroke-width="27"/>
<path d="M437.333 10C420.534 10 406.915 23.6183 406.915 40.4173V104.121C395.722 99.08 382.104 101.157 372.909 110.352C361.03 122.231 361.03 141.49 372.909 153.369L423.286 203.746C429.702 210.162 439.699 214.315 448.49 216.875C457.579 219.52 467.287 221 474.545 221H490.352C527.702 221 557.981 190.721 557.981 153.371C557.981 116.02 527.702 85.7414 490.352 85.7414H474.545C472.253 85.7414 469.986 85.8557 467.75 86.0792V40.4172C467.75 23.6183 454.132 10 437.333 10Z" fill="#84BF42" stroke="white" stroke-width="20"/>
</svg>
